<?xml version="1.0" encoding="UTF-8"?>
<svg id="Layer_1" data-name="Layer 1" xmlns="http://www.w3.org/2000/svg" viewBox="0 0 400 200">
  <defs>
    <style>
      .cls-1 {
        fill: none;
      }

      .cls-2 {
        fill: #0061ae;
      }

      .cls-3 {
        fill: #ffe72c;
      }

      .cls-4 {
        fill: #58595b;
      }
    </style>
  </defs>
  <g>
    <path class="cls-4" d="m227.34,97.87h11.4v-13.4h6.68v33.75h-6.68v-14.58h-11.4v14.58h-6.68v-33.75h6.68v13.4Z"/>
    <path class="cls-4" d="m269.11,114.5c-1.67,2.98-4.44,4.16-8.73,4.16-7.15,0-10.59-4.74-10.59-11.05v-3.33c0-7.39,3.62-10.96,9.82-10.96,6.72,0,9.82,4.01,9.82,11.45v2.79h-13.59c.05,3.38,1.1,5.82,4.48,5.82,2.53,0,3.34-.78,4.24-2.1l4.53,3.23Zm-13.26-11.4h7.49c-.14-3.18-1.38-4.5-3.67-4.5-2.43,0-3.58,1.71-3.81,4.5Z"/>
    <path class="cls-4" d="m280.98,103.54h4.72v-1.42c0-2.74-.81-3.62-4.24-3.62-2.34,0-3.48.34-4.48,1.96l-4.29-3.08c1.76-2.98,4.44-4.06,9.35-4.06,6.15,0,9.63,1.86,9.63,8.85v16.04h-5.96v-2.15c-.95,1.66-2.38,2.59-5.15,2.59-4.96,0-8.39-2.69-8.39-7.68s3.82-7.43,8.82-7.43Zm4.72,4.6h-4.01c-2.48,0-3.58.83-3.58,2.74s1.38,2.74,3.48,2.74c2.77,0,4.1-1.22,4.1-4.55v-.93Z"/>
    <path class="cls-4" d="m296.05,84.47h6.1v24.51c0,2.64.76,3.86,3.34,3.86v5.38c-6.44,0-9.44-1.71-9.44-7.83v-25.92Z"/>
    <path class="cls-4" d="m307.4,93.76h3.05v-5.38h6.06v5.38h4.67v5.28h-4.67v10.22c0,2.45.48,3.47,2.72,3.47h1.95v5.48h-2.58c-5.77,0-8.15-1.66-8.15-7.97v-11.2h-3.05v-5.28Z"/>
    <path class="cls-4" d="m324.47,84.47h6.1v11.2c.91-1.22,2.58-2.35,5.34-2.35,4.82,0,8.73,2.35,8.73,9.59v15.31h-6.06v-14.33c0-3.82-1.34-5.18-3.82-5.18-2.81,0-4.2,1.91-4.2,5.14v14.38h-6.1v-33.75Z"/>
  </g>
  <g>
    <path class="cls-4" d="m217.28,135.13c-1.42-2.29-3.13-3.41-6.46-3.41-2.99,0-4.6,1.41-4.6,3.7,0,2.63,2.09,3.8,6.46,4.92,6.84,1.75,9.92,4.38,9.92,10.32,0,5.5-3.61,9.79-11.3,9.79-5.74,0-9.73-1.61-12.63-5.5l5.08-3.6c1.76,2.24,3.75,3.36,7.12,3.36,3.8,0,5.08-1.7,5.08-3.75,0-2.34-1.38-3.65-6.69-5.06-6.46-1.75-9.68-4.92-9.68-10.47s3.42-9.45,11.2-9.45c5.22,0,9.16,1.8,11.49,5.5l-4.98,3.65Z"/>
    <path class="cls-4" d="m243.67,156.31c-1.66,2.87-4.37,4.14-8.64,4.14-6.79,0-10.59-4.38-10.59-11.01v-3.31c0-7.11,3.84-10.91,10.92-10.91,3.66,0,6.65,1.36,8.31,4.04l-4.56,3.26c-.81-1.17-1.99-2.05-3.89-2.05-3.42,0-4.75,2.14-4.75,6.04v2.53c0,3.51.9,6.14,4.75,6.14,1.8,0,3.09-.63,3.94-2.09l4.51,3.21Z"/>
    <path class="cls-4" d="m246.48,126.41h6.55v6.04h-6.55v-6.04Zm.24,9.25h6.08v24.35h-6.08v-24.35Z"/>
    <path class="cls-4" d="m276.24,156.31c-1.66,2.97-4.41,4.14-8.69,4.14-7.12,0-10.54-4.72-10.54-11.01v-3.31c0-7.35,3.61-10.91,9.78-10.91,6.69,0,9.78,3.99,9.78,11.4v2.78h-13.53c.05,3.36,1.09,5.79,4.46,5.79,2.52,0,3.32-.78,4.23-2.09l4.51,3.21Zm-13.2-11.35h7.45c-.14-3.16-1.38-4.48-3.66-4.48-2.42,0-3.56,1.7-3.8,4.48Z"/>
    <path class="cls-4" d="m280.46,135.66h5.93v2.05c.9-1.22,2.8-2.48,5.46-2.48,4.8,0,8.69,2.34,8.69,9.54v15.24h-6.03v-14.27c0-3.8-1.33-5.16-3.8-5.16-2.8,0-4.18,1.9-4.18,5.11v14.32h-6.08v-24.35Z"/>
    <path class="cls-4" d="m323.33,156.31c-1.66,2.87-4.37,4.14-8.64,4.14-6.79,0-10.59-4.38-10.59-11.01v-3.31c0-7.11,3.85-10.91,10.92-10.91,3.66,0,6.65,1.36,8.31,4.04l-4.56,3.26c-.81-1.17-1.99-2.05-3.89-2.05-3.42,0-4.75,2.14-4.75,6.04v2.53c0,3.51.9,6.14,4.75,6.14,1.8,0,3.09-.63,3.94-2.09l4.51,3.21Z"/>
    <path class="cls-4" d="m343.7,156.31c-1.66,2.97-4.41,4.14-8.69,4.14-7.12,0-10.54-4.72-10.54-11.01v-3.31c0-7.35,3.61-10.91,9.78-10.91,6.69,0,9.78,3.99,9.78,11.4v2.78h-13.53c.05,3.36,1.09,5.79,4.46,5.79,2.52,0,3.32-.78,4.23-2.09l4.51,3.21Zm-13.2-11.35h7.45c-.14-3.16-1.38-4.48-3.66-4.48-2.42,0-3.56,1.7-3.8,4.48Z"/>
    <path class="cls-4" d="m360.93,142.53c-1.04-1.27-2.09-1.95-4.65-1.95-1.57,0-2.99.49-2.99,1.9s1.28,2,3.8,2.39c5.84.92,8.78,3.21,8.78,8.03s-3.18,7.55-9.3,7.55c-4.84,0-7.79-1.22-9.83-4.04l4.65-3.41c.95,1.31,2.14,2.09,5.08,2.09,2.09,0,3.37-.73,3.37-2,0-1.51-1.04-2-4.04-2.48-4.94-.83-8.54-2.97-8.54-7.89,0-4.63,3.23-7.5,9.16-7.5,3.89,0,7.12.93,8.97,4.04l-4.46,3.26Z"/>
  </g>
  <g>
    <g>
      <polygon class="cls-2" points="116 160.01 160.3 160.01 181.53 92.24 137.26 92.13 116 160.01"/>
      <polygon class="cls-2" points="153.59 39.84 139.77 84.09 184.1 84.03 197.9 39.84 153.59 39.84"/>
    </g>
    <path class="cls-3" d="m39.34,155.99l34.99-112.12h39.38c22.06.97,38.61,19.06,37.68,41.22-.95,22.91-20.37,41.56-43.28,41.56h-17.25s-9.18,29.34-9.18,29.34h-42.33Z"/>
    <path class="cls-2" d="m77.28,47.89h36.33c19.77.91,34.58,17.15,33.76,37.03-.87,20.79-18.48,37.7-39.26,37.7h-14.29s-5.91,0-5.91,0l-1.77,5.64-7.42,23.71h-33.91l32.48-104.08m-5.92-8.04l-37.5,120.17h50.76l9.18-29.35s14.25,0,14.3,0c25.08,0,46.26-20.33,47.3-45.41,1.02-24.43-17.47-44.4-41.61-45.41h-42.43Z"/>
    <polygon class="cls-2" points="105.66 92.09 63.41 92.09 65.59 84.01 108.18 84.01 105.66 92.09"/>
  </g>
  <rect class="cls-1" x="-.29" y="5.94" width="400.29" height="188.4"/>
</svg>