<svg id="email" xmlns="http://www.w3.org/2000/svg" width="66" height="66" viewBox="0 0 66 66">
  <g id="phone_4_" data-name="phone (4)">
    <path id="Path_6769" data-name="Path 6769" d="M33,66A33,33,0,1,1,66,33a1.435,1.435,0,0,1-2.87,0A30.13,30.13,0,1,0,33,63.13c10,0,19.717-5.088,23.1-12.1a3.156,3.156,0,0,0,.192-3.171c-1.613-1.48-8-10.98-10.142-10.554a1.438,1.438,0,1,1-.187-2.87c3.166-.572,10.564,9.418,12.711,11.814a5.739,5.739,0,0,1,0,6.026C54.849,60.229,44.048,66,33,66Z" fill="#111"/>
  </g>
  <g id="black-back-closed-envelope-shape" transform="translate(13.941 18.029)">
    <g id="Group_3659" data-name="Group 3659">
      <path id="Path_6775" data-name="Path 6775" d="M50.67,335.233a3.276,3.276,0,0,0,2.243-.846L42.054,323.528l-.752.54q-1.219.9-1.978,1.4A12.193,12.193,0,0,1,37.3,326.5a6.16,6.16,0,0,1-2.353.524h-.043a6.159,6.159,0,0,1-2.353-.524,12.153,12.153,0,0,1-2.021-1.027q-.76-.5-1.978-1.4c-.227-.166-.478-.348-.749-.543l-10.86,10.862a3.277,3.277,0,0,0,2.243.846Z" transform="translate(-15.767 -305.12)" fill="#23ae51"/>
      <path id="Path_6776" data-name="Path 6776" d="M2.16,200.416A11.338,11.338,0,0,1,0,198.555v16.52l9.57-9.57Q6.7,203.5,2.16,200.416Z" transform="translate(0 -188.845)" fill="#23ae51"/>
      <path id="Path_6777" data-name="Path 6777" d="M420.737,200.416q-4.37,2.957-7.428,5.093l9.567,9.567V198.555A11.8,11.8,0,0,1,420.737,200.416Z" transform="translate(-384.55 -188.845)" fill="#23ae51"/>
      <path id="Path_6778" data-name="Path 6778" d="M34.909,59.013H3.428A3.054,3.054,0,0,0,.894,60.125a4.315,4.315,0,0,0-.888,2.78,5,5,0,0,0,1.176,2.92,10.61,10.61,0,0,0,2.5,2.47q.727.514,4.384,3.048c1.316.912,2.461,1.707,3.445,2.393.838.584,1.562,1.09,2.159,1.51l.319.227.59.425q.7.5,1.155.813t1.112.695a6.488,6.488,0,0,0,1.23.577,3.4,3.4,0,0,0,1.069.192h.043a3.4,3.4,0,0,0,1.069-.192,6.472,6.472,0,0,0,1.23-.577q.652-.385,1.112-.695t1.155-.813l.589-.425.32-.228,2.164-1.5,7.845-5.447a10.172,10.172,0,0,0,2.609-2.63,5.658,5.658,0,0,0,1.047-3.229,3.45,3.45,0,0,0-3.422-3.422Z" transform="translate(-0.006 -59.013)" fill="#23ae51"/>
    </g>
  </g>
</svg>
