<svg xmlns="http://www.w3.org/2000/svg" xmlns:xlink="http://www.w3.org/1999/xlink" width="337" height="58" viewBox="0 0 337 58">
  <defs>
    <clipPath id="clip-footer-logo">
      <rect width="337" height="58"/>
    </clipPath>
  </defs>
  <g id="footer-logo" clip-path="url(#clip-footer-logo)">
    <g id="Group_5293" data-name="Group 5293" transform="translate(-86.922 569.168)">
      <g id="Group_5140" data-name="Group 5140" transform="translate(136.793 -562.491)">
        <path id="Path_26614" data-name="Path 26614" d="M348.426-505.325v-26.062h20.023v5.522H354.623v5.721h12.435v5.284H354.623v5.761h14.262v3.774h3.854v1.708H344.572v-1.708Z" transform="translate(-344.572 532.023)" fill="#23ae51"/>
        <path id="Path_26615" data-name="Path 26615" d="M482.657-505.325v-26.062h5.8l13.627,17.878v-17.878h6.2v26.062h3.854v1.708H502.084l-13.23-17.4v17.4H478.8v-1.708Z" transform="translate(-452.821 532.023)" fill="#23ae51"/>
        <path id="Path_26616" data-name="Path 26616" d="M675.582-505.325v1.708H648.249v-1.708h10.329L648.13-531.387h6.714l7.072,17.679,7.072-17.679H675.7l-10.488,26.062Z" transform="translate(-589.373 532.023)" fill="#23ae51"/>
        <path id="Path_26617" data-name="Path 26617" d="M802.985-505.325v1.708H789.954v-1.708h3.417v-26.062h6.2v26.062Z" transform="translate(-703.745 532.023)" fill="#23ae51"/>
        <path id="Path_26618" data-name="Path 26618" d="M858.869-505.325v-26.062H869.4q6.476,0,9.237,2.185t2.761,7.032q0,6.674-5.284,8.621l5.8,8.224h3.734v1.708H875.515l-6.158-8.859h-4.29v8.859H855.015v-1.708Zm15.057-13.547a4.2,4.2,0,0,0,1.152-3.278,3.513,3.513,0,0,0-1.192-3.079,7.63,7.63,0,0,0-4.172-.834h-4.648v8.224H869.6Q872.773-517.84,873.926-518.873Z" transform="translate(-756.213 532.023)" fill="#23ae51"/>
        <path id="Path_26619" data-name="Path 26619" d="M1039.3-507.974v1.708h-32.815v-1.708h8.859a13.74,13.74,0,0,1-5.145-5.125,14.156,14.156,0,0,1-1.887-7.23,13.719,13.719,0,0,1,4.211-10.23,14.268,14.268,0,0,1,10.369-4.112,14.27,14.27,0,0,1,10.369,4.112,13.721,13.721,0,0,1,4.211,10.23,14.046,14.046,0,0,1-1.907,7.23,13.986,13.986,0,0,1-5.125,5.125Zm-8.144-12.336a9.089,9.089,0,0,0-2.383-6.337,7.613,7.613,0,0,0-5.86-2.622,7.611,7.611,0,0,0-5.86,2.622,9.088,9.088,0,0,0-2.384,6.337,9.015,9.015,0,0,0,2.384,6.317,7.636,7.636,0,0,0,5.86,2.6,7.637,7.637,0,0,0,5.86-2.6A9.015,9.015,0,0,0,1031.157-520.309Z" transform="translate(-878.365 534.671)" fill="#23ae51"/>
      </g>
      <g id="Group_5141" data-name="Group 5141" transform="translate(309.082 -563.02)">
        <path id="Path_26620" data-name="Path 26620" d="M1257.476-509.615a11.275,11.275,0,0,1-9.469,4.7,13.021,13.021,0,0,1-13.335-13.444,13.021,13.021,0,0,1,13.335-13.444,11.13,11.13,0,0,1,8.854,4.048l-2.277,1.7a8.451,8.451,0,0,0-6.578-3.361c-6.577,0-10.516,5.168-10.516,11.059s3.939,11.059,10.516,11.059a8.2,8.2,0,0,0,7.337-3.831Z" transform="translate(-1234.672 532.889)" fill="#fff"/>
        <path id="Path_26621" data-name="Path 26621" d="M1382.809-466.722a22.588,22.588,0,0,1-.109-2.71h-.072a6.813,6.813,0,0,1-5.674,3.144c-4.3,0-6.361-2.421-6.361-6.613v-10.734h2.385v9.36c0,3.758,1.048,5.818,4.59,5.818.506,0,5.131-.325,5.131-6.505v-8.673h2.385v13.191c0,.9.108,2.494.181,3.722Z" transform="translate(-1344.285 494.043)" fill="#fff"/>
        <path id="Path_26622" data-name="Path 26622" d="M1479.589-510.085H1477.2v-27.321h2.385Z" transform="translate(-1430.259 537.406)" fill="#fff"/>
        <path id="Path_26623" data-name="Path 26623" d="M1519.225-501.341h-4.879v9.974c0,2.53.976,3.036,2.457,3.036a5.307,5.307,0,0,0,2.458-.65l.108,2.2a7.977,7.977,0,0,1-3.216.614c-1.807,0-4.192-.8-4.192-4.517v-10.661h-3.578v-2.168h3.578v-4.77h2.385v4.77h4.879Z" transform="translate(-1455.403 513.918)" fill="#fff"/>
        <path id="Path_26624" data-name="Path 26624" d="M1593.41-466.722a22.614,22.614,0,0,1-.109-2.71h-.072a6.814,6.814,0,0,1-5.674,3.144c-4.3,0-6.36-2.421-6.36-6.613v-10.734h2.385v9.36c0,3.758,1.048,5.818,4.59,5.818.506,0,5.132-.325,5.132-6.505v-8.673h2.385v13.191c0,.9.109,2.494.181,3.722Z" transform="translate(-1514.121 494.043)" fill="#fff"/>
        <path id="Path_26625" data-name="Path 26625" d="M1685.709-480.165c0-1.518-.072-2.819-.145-5.277h2.349v3.144h.072a5.564,5.564,0,0,1,5.421-3.578,6.417,6.417,0,0,1,1.771.217l-.47,2.349a4.017,4.017,0,0,0-1.373-.181,5.292,5.292,0,0,0-5.24,5.421v9.541h-2.385Z" transform="translate(-1598.289 495.849)" fill="#fff"/>
        <path id="Path_26626" data-name="Path 26626" d="M1741.678-476.334a6.356,6.356,0,0,0,6.216,6.071,6.406,6.406,0,0,0,5.421-2.927l1.843,1.518a8.82,8.82,0,0,1-7.264,3.578,8.587,8.587,0,0,1-8.746-8.89,8.541,8.541,0,0,1,8.529-8.89c5.132.036,8.1,3.831,8.1,8.457v1.084Zm11.492-1.951a5.1,5.1,0,0,0-5.493-5.421c-3.108,0-5.927,2.638-5.927,5.421Z" transform="translate(-1641.501 495.849)" fill="#fff"/>
      </g>
      <g id="Group_5142" data-name="Group 5142" transform="translate(137.625 -525.206)">
        <path id="Path_26627" data-name="Path 26627" d="M348.872-337.721h3.595c2.513,0,4.066,1.082,4.066,3.3s-1.553,3.315-4.066,3.315h-2.338v5.741h-1.256Zm1.256,5.462h2.024c2.251,0,3.019-.977,3.019-2.164s-.768-2.146-3.019-2.146h-2.024Z" transform="translate(-348.872 338.559)" fill="#fff"/>
        <path id="Path_26628" data-name="Path 26628" d="M400.618-308.582a4.171,4.171,0,0,1-4.327-4.293,4.171,4.171,0,0,1,4.327-4.293,4.176,4.176,0,0,1,4.345,4.293A4.176,4.176,0,0,1,400.618-308.582Zm0-7.538a3.025,3.025,0,0,0-3.071,3.246,3.025,3.025,0,0,0,3.071,3.246,3.029,3.029,0,0,0,3.088-3.246A3.029,3.029,0,0,0,400.618-316.12Z" transform="translate(-387.112 321.983)" fill="#fff"/>
        <path id="Path_26629" data-name="Path 26629" d="M454.417-328.856h-1.152v-13.192h1.152Z" transform="translate(-433.059 342.048)" fill="#fff"/>
        <path id="Path_26630" data-name="Path 26630" d="M476.053-328.856H474.9v-13.192h1.152Z" transform="translate(-450.507 342.048)" fill="#fff"/>
        <path id="Path_26631" data-name="Path 26631" d="M501.082-307.919a11,11,0,0,1-.052-1.309h-.035a3.289,3.289,0,0,1-2.739,1.518c-2.077,0-3.071-1.169-3.071-3.193v-5.182h1.152v4.519c0,1.815.506,2.81,2.216,2.81.244,0,2.478-.157,2.478-3.141v-4.188h1.151v6.369c0,.436.052,1.2.087,1.8Z" transform="translate(-466.864 321.11)" fill="#fff"/>
        <path id="Path_26632" data-name="Path 26632" d="M545.315-324.635h-2.356v4.816c0,1.221.471,1.466,1.187,1.466a2.561,2.561,0,0,0,1.187-.314l.052,1.064a3.851,3.851,0,0,1-1.553.3,1.9,1.9,0,0,1-2.024-2.181v-5.148H540.08v-1.047h1.728v-2.3h1.152v2.3h2.356Z" transform="translate(-503.069 330.707)" fill="#fff"/>
        <path id="Path_26633" data-name="Path 26633" d="M576.076-334.964a.849.849,0,0,1-.838-.838.849.849,0,0,1,.838-.838.849.849,0,0,1,.838.838A.849.849,0,0,1,576.076-334.964Zm.576,10.47H575.5v-8.166h1.152Z" transform="translate(-531.422 337.686)" fill="#fff"/>
        <path id="Path_26634" data-name="Path 26634" d="M599.037-308.582a4.171,4.171,0,0,1-4.327-4.293,4.171,4.171,0,0,1,4.327-4.293,4.176,4.176,0,0,1,4.345,4.293A4.176,4.176,0,0,1,599.037-308.582Zm0-7.538a3.025,3.025,0,0,0-3.071,3.246,3.025,3.025,0,0,0,3.071,3.246,3.029,3.029,0,0,0,3.089-3.246A3.029,3.029,0,0,0,599.037-316.12Z" transform="translate(-547.125 321.983)" fill="#fff"/>
        <path id="Path_26635" data-name="Path 26635" d="M651.069-316.958a10.964,10.964,0,0,1,.052,1.309h.035a3.289,3.289,0,0,1,2.74-1.518c2.076,0,3.071,1.169,3.071,3.193v5.183h-1.152v-4.52c0-1.815-.506-2.809-2.216-2.809-.244,0-2.478.157-2.478,3.141v4.188h-1.152v-6.369c0-.436-.052-1.2-.087-1.8Z" transform="translate(-591.618 321.983)" fill="#fff"/>
        <path id="Path_26636" data-name="Path 26636" d="M734.366-328.63a5.444,5.444,0,0,1-4.572,2.268,6.287,6.287,0,0,1-6.439-6.491,6.287,6.287,0,0,1,6.439-6.491,5.375,5.375,0,0,1,4.275,1.954l-1.1.82a4.079,4.079,0,0,0-3.176-1.623,5.045,5.045,0,0,0-5.078,5.339,5.046,5.046,0,0,0,5.078,5.34,3.959,3.959,0,0,0,3.542-1.85Z" transform="translate(-650.87 339.867)" fill="#fff"/>
        <path id="Path_26637" data-name="Path 26637" d="M791.149-308.582a4.171,4.171,0,0,1-4.327-4.293,4.171,4.171,0,0,1,4.327-4.293,4.176,4.176,0,0,1,4.345,4.293A4.176,4.176,0,0,1,791.149-308.582Zm0-7.538a3.025,3.025,0,0,0-3.071,3.246,3.025,3.025,0,0,0,3.071,3.246,3.029,3.029,0,0,0,3.089-3.246A3.029,3.029,0,0,0,791.149-316.12Z" transform="translate(-702.052 321.983)" fill="#fff"/>
        <path id="Path_26638" data-name="Path 26638" d="M843.18-316.958a10.926,10.926,0,0,1,.052,1.309h.035a3.29,3.29,0,0,1,2.74-1.518c2.076,0,3.071,1.169,3.071,3.193v5.183h-1.152v-4.52c0-1.815-.506-2.809-2.216-2.809-.244,0-2.478.157-2.478,3.141v4.188h-1.152v-6.369c0-.436-.052-1.2-.087-1.8Z" transform="translate(-746.545 321.983)" fill="#fff"/>
        <path id="Path_26639" data-name="Path 26639" d="M892.575-324.635h-2.356v4.816c0,1.221.471,1.466,1.187,1.466a2.56,2.56,0,0,0,1.186-.314l.053,1.064a3.851,3.851,0,0,1-1.553.3,1.9,1.9,0,0,1-2.024-2.181v-5.148H887.34v-1.047h1.727v-2.3h1.152v2.3h2.356Z" transform="translate(-783.113 330.707)" fill="#fff"/>
        <path id="Path_26640" data-name="Path 26640" d="M922.837-314.41c0-.733-.035-1.361-.07-2.548H923.9v1.518h.035a2.686,2.686,0,0,1,2.617-1.728,3.1,3.1,0,0,1,.855.1l-.227,1.134a1.94,1.94,0,0,0-.663-.087,2.555,2.555,0,0,0-2.53,2.617v4.607h-1.151Z" transform="translate(-811.683 321.983)" fill="#fff"/>
        <path id="Path_26641" data-name="Path 26641" d="M952.968-308.582a4.171,4.171,0,0,1-4.327-4.293,4.171,4.171,0,0,1,4.327-4.293,4.176,4.176,0,0,1,4.345,4.293A4.176,4.176,0,0,1,952.968-308.582Zm0-7.538a3.025,3.025,0,0,0-3.071,3.246,3.025,3.025,0,0,0,3.071,3.246,3.029,3.029,0,0,0,3.089-3.246A3.029,3.029,0,0,0,952.968-316.12Z" transform="translate(-832.549 321.983)" fill="#fff"/>
        <path id="Path_26642" data-name="Path 26642" d="M1006.767-328.856h-1.152v-13.192h1.152Z" transform="translate(-878.495 342.048)" fill="#fff"/>
        <path id="Path_26643" data-name="Path 26643" d="M1059.808-328.63a5.443,5.443,0,0,1-4.572,2.268,6.287,6.287,0,0,1-6.439-6.491,6.287,6.287,0,0,1,6.439-6.491,5.375,5.375,0,0,1,4.275,1.954l-1.1.82a4.08,4.08,0,0,0-3.176-1.623,5.045,5.045,0,0,0-5.077,5.339,5.046,5.046,0,0,0,5.077,5.34,3.959,3.959,0,0,0,3.542-1.85Z" transform="translate(-913.319 339.867)" fill="#fff"/>
        <path id="Path_26644" data-name="Path 26644" d="M1116.591-308.582a4.171,4.171,0,0,1-4.327-4.293,4.171,4.171,0,0,1,4.327-4.293,4.175,4.175,0,0,1,4.345,4.293A4.175,4.175,0,0,1,1116.591-308.582Zm0-7.538a3.025,3.025,0,0,0-3.071,3.246,3.025,3.025,0,0,0,3.071,3.246,3.029,3.029,0,0,0,3.089-3.246A3.029,3.029,0,0,0,1116.591-316.12Z" transform="translate(-964.501 321.983)" fill="#fff"/>
        <path id="Path_26645" data-name="Path 26645" d="M1168.622-316.958a10.989,10.989,0,0,1,.052,1.309h.035a3.29,3.29,0,0,1,2.74-1.518c2.076,0,3.071,1.169,3.071,3.193v5.183h-1.152v-4.52c0-1.815-.506-2.809-2.216-2.809-.244,0-2.478.157-2.478,3.141v4.188h-1.151v-6.369c0-.436-.052-1.2-.088-1.8Z" transform="translate(-1008.993 321.983)" fill="#fff"/>
        <path id="Path_26646" data-name="Path 26646" d="M1219.5-315.021a1.9,1.9,0,0,0-1.762-1.1c-.8,0-1.693.349-1.693,1.221,0,.768.541,1.047,1.605,1.291l1.169.279a2.341,2.341,0,0,1,1.989,2.233c0,1.78-1.588,2.513-3.176,2.513a3.56,3.56,0,0,1-3.141-1.588l.995-.681a2.478,2.478,0,0,0,2.146,1.222c.942,0,1.92-.419,1.92-1.361,0-.82-.7-1.1-1.553-1.309l-1.117-.262c-.558-.14-2.094-.593-2.094-2.146,0-1.693,1.483-2.46,3.019-2.46a2.827,2.827,0,0,1,2.722,1.466Z" transform="translate(-1046.944 321.983)" fill="#fff"/>
        <path id="Path_26647" data-name="Path 26647" d="M1262.314-307.919a10.915,10.915,0,0,1-.052-1.309h-.035a3.289,3.289,0,0,1-2.74,1.518c-2.076,0-3.071-1.169-3.071-3.193v-5.182h1.151v4.519c0,1.815.506,2.81,2.216,2.81.244,0,2.478-.157,2.478-3.141v-4.188h1.152v6.369c0,.436.052,1.2.087,1.8Z" transform="translate(-1080.75 321.11)" fill="#fff"/>
        <path id="Path_26648" data-name="Path 26648" d="M1309.043-328.856h-1.152v-13.192h1.152Z" transform="translate(-1122.262 342.048)" fill="#fff"/>
        <path id="Path_26649" data-name="Path 26649" d="M1328.182-324.635h-2.356v4.816c0,1.221.471,1.466,1.187,1.466a2.561,2.561,0,0,0,1.187-.314l.052,1.064a3.848,3.848,0,0,1-1.553.3,1.9,1.9,0,0,1-2.024-2.181v-5.148h-1.727v-1.047h1.727v-2.3h1.152v2.3h2.356Z" transform="translate(-1134.403 330.707)" fill="#fff"/>
        <path id="Path_26650" data-name="Path 26650" d="M1361.595-313.8v-.209a1.849,1.849,0,0,0-2.094-2.111,3.631,3.631,0,0,0-2.5.96l-.7-.82a4.675,4.675,0,0,1,3.455-1.187,2.739,2.739,0,0,1,2.984,2.9v3.647a13.269,13.269,0,0,0,.14,1.832h-1.117a8.139,8.139,0,0,1-.1-1.326h-.035a3.056,3.056,0,0,1-2.879,1.536c-1.448,0-2.809-.8-2.809-2.391,0-2.652,3.123-2.827,5.078-2.827Zm-.593.942c-1.169,0-3.8.087-3.8,1.728,0,1.082.995,1.5,1.919,1.5a2.385,2.385,0,0,0,2.478-2.635v-.593Z" transform="translate(-1161.011 321.983)" fill="#fff"/>
        <path id="Path_26651" data-name="Path 26651" d="M1405.629-316.958a10.938,10.938,0,0,1,.052,1.309h.035a3.29,3.29,0,0,1,2.74-1.518c2.076,0,3.071,1.169,3.071,3.193v5.183h-1.152v-4.52c0-1.815-.506-2.809-2.216-2.809-.244,0-2.478.157-2.478,3.141v4.188h-1.152v-6.369c0-.436-.052-1.2-.087-1.8Z" transform="translate(-1200.124 321.983)" fill="#fff"/>
        <path id="Path_26652" data-name="Path 26652" d="M1455.024-324.635h-2.355v4.816c0,1.221.471,1.466,1.186,1.466a2.562,2.562,0,0,0,1.187-.314l.052,1.064a3.849,3.849,0,0,1-1.553.3,1.9,1.9,0,0,1-2.024-2.181v-5.148h-1.727v-1.047h1.727v-2.3h1.152v2.3h2.355Z" transform="translate(-1236.694 330.707)" fill="#fff"/>
        <path id="Path_26653" data-name="Path 26653" d="M1514.673-336.988a2.7,2.7,0,0,0-2.391-1.2c-1.291,0-2.635.68-2.635,2.234,0,3.333,6.334,1.57,6.334,6.02,0,2.251-2.112,3.577-4.066,3.577a4.648,4.648,0,0,1-3.891-1.832l1.134-.82a3.119,3.119,0,0,0,2.809,1.5,2.474,2.474,0,0,0,2.652-2.251c0-3.49-6.334-1.553-6.334-6.072,0-2.391,1.989-3.508,4-3.508a4.261,4.261,0,0,1,3.49,1.5Z" transform="translate(-1283.657 339.867)" fill="#fff"/>
        <path id="Path_26654" data-name="Path 26654" d="M1559.19-312.56a3.069,3.069,0,0,0,3,2.932,3.092,3.092,0,0,0,2.617-1.414l.89.733a4.259,4.259,0,0,1-3.507,1.728,4.146,4.146,0,0,1-4.223-4.293,4.124,4.124,0,0,1,4.118-4.293,3.828,3.828,0,0,1,3.909,4.083v.523Zm5.549-.942a2.464,2.464,0,0,0-2.652-2.617,2.874,2.874,0,0,0-2.862,2.617Z" transform="translate(-1323.934 321.983)" fill="#fff"/>
        <path id="Path_26655" data-name="Path 26655" d="M1610.6-314.41c0-.733-.035-1.361-.07-2.548h1.134v1.518h.035a2.686,2.686,0,0,1,2.617-1.728,3.1,3.1,0,0,1,.855.1l-.227,1.134a1.941,1.941,0,0,0-.663-.087,2.555,2.555,0,0,0-2.53,2.617v4.607H1610.6Z" transform="translate(-1366.319 321.983)" fill="#fff"/>
        <path id="Path_26656" data-name="Path 26656" d="M1639.565-307.919h-1.292l-3.315-8.166h1.379l2.6,6.875h.035l2.6-6.875h1.309Z" transform="translate(-1386.021 321.11)" fill="#fff"/>
        <path id="Path_26657" data-name="Path 26657" d="M1684.477-334.964a.849.849,0,0,1-.838-.838.849.849,0,0,1,.838-.838.849.849,0,0,1,.837.838A.849.849,0,0,1,1684.477-334.964Zm.576,10.47H1683.9v-8.166h1.152Z" transform="translate(-1425.279 337.686)" fill="#fff"/>
        <path id="Path_26658" data-name="Path 26658" d="M1709.48-315.04a2.45,2.45,0,0,0-2.042-1.082,2.979,2.979,0,0,0-3.071,3.246,2.979,2.979,0,0,0,3.071,3.246,2.45,2.45,0,0,0,2.042-1.082l.942.715a3.952,3.952,0,0,1-2.984,1.414,4.075,4.075,0,0,1-4.327-4.293,4.075,4.075,0,0,1,4.327-4.293,3.952,3.952,0,0,1,2.984,1.413Z" transform="translate(-1440.982 321.985)" fill="#fff"/>
        <path id="Path_26659" data-name="Path 26659" d="M1747.785-312.56a3.069,3.069,0,0,0,3,2.932,3.094,3.094,0,0,0,2.618-1.414l.89.733a4.259,4.259,0,0,1-3.507,1.728,4.146,4.146,0,0,1-4.223-4.293,4.124,4.124,0,0,1,4.118-4.293,3.828,3.828,0,0,1,3.909,4.083v.523Zm5.549-.942a2.464,2.464,0,0,0-2.652-2.617,2.874,2.874,0,0,0-2.861,2.617Z" transform="translate(-1476.024 321.983)" fill="#fff"/>
        <path id="Path_26660" data-name="Path 26660" d="M1800.344-315.021a1.9,1.9,0,0,0-1.762-1.1c-.8,0-1.693.349-1.693,1.221,0,.768.541,1.047,1.605,1.291l1.169.279a2.341,2.341,0,0,1,1.989,2.233c0,1.78-1.588,2.513-3.176,2.513a3.56,3.56,0,0,1-3.141-1.588l.994-.681a2.478,2.478,0,0,0,2.146,1.222c.942,0,1.919-.419,1.919-1.361,0-.82-.7-1.1-1.553-1.309l-1.117-.262c-.558-.14-2.094-.593-2.094-2.146,0-1.693,1.483-2.46,3.019-2.46a2.827,2.827,0,0,1,2.722,1.466Z" transform="translate(-1515.356 321.983)" fill="#fff"/>
      </g>
      <g id="Group_5152" data-name="Group 5152" transform="translate(86.922 -569.168)">
        <g id="Group_5143" data-name="Group 5143" transform="translate(12.565 13.586)">
          <path id="Path_26661" data-name="Path 26661" d="M151.835-480.533a16.652,16.652,0,0,0,2.461,1.249,22.673,22.673,0,0,1,21.946-16.987c.334,0,.665.011,1,.025a16.657,16.657,0,0,0-.465-2.721c-.177,0-.352-.013-.53-.013A25.377,25.377,0,0,0,151.835-480.533Z" transform="translate(-151.835 498.98)" fill="#23ae51"/>
        </g>
        <g id="Group_5144" data-name="Group 5144" transform="translate(17.834 19.382)">
          <path id="Path_26662" data-name="Path 26662" d="M179.056-454.269a16.726,16.726,0,0,0,2.731.349,15.928,15.928,0,0,1,15.523-12.373c.46,0,.915.024,1.365.062a16.629,16.629,0,0,0,.5-2.709c-.614-.061-1.236-.093-1.865-.093A18.67,18.67,0,0,0,179.056-454.269Z" transform="translate(-179.056 469.032)" fill="#23ae51"/>
        </g>
        <g id="Group_5145" data-name="Group 5145" transform="translate(23.294 24.829)">
          <path id="Path_26663" data-name="Path 26663" d="M207.265-431.326a16.6,16.6,0,0,0,3.334-.744,12,12,0,0,1,8.12-5.891,16.709,16.709,0,0,0,1.741-2.931A14.713,14.713,0,0,0,207.265-431.326Z" transform="translate(-207.265 440.892)" fill="#23ae51"/>
        </g>
        <g id="Group_5146" data-name="Group 5146" transform="translate(4.752 12.953)">
          <path id="Path_26664" data-name="Path 26664" d="M113.262-502.251q-.611,0-1.214.032a16.641,16.641,0,0,0-.575,2.737c.59-.051,1.186-.083,1.789-.083a20.4,20.4,0,0,1,11,3.2,18.389,18.389,0,0,1,2.314-1.685A23.078,23.078,0,0,0,113.262-502.251Z" transform="translate(-111.473 502.251)" fill="#77c043"/>
        </g>
        <g id="Group_5147" data-name="Group 5147" transform="translate(4.64 18.474)">
          <path id="Path_26665" data-name="Path 26665" d="M113.351-473.723a16.029,16.029,0,0,0-2.458.19,16.686,16.686,0,0,0,.411,2.912,13.061,13.061,0,0,1,2.047-.162,12.911,12.911,0,0,1,6.669,1.845,18.405,18.405,0,0,1,1.736-2.382A15.834,15.834,0,0,0,113.351-473.723Z" transform="translate(-110.893 473.723)" fill="#77c043"/>
        </g>
        <g id="Group_5148" data-name="Group 5148" transform="translate(5.795 23.951)">
          <path id="Path_26666" data-name="Path 26666" d="M117.422-445.432c-.188,0-.373.007-.559.014a16.637,16.637,0,0,0,1.389,2.735,11.914,11.914,0,0,1,4.558,1.254,18.188,18.188,0,0,1,.921-2.583A14.641,14.641,0,0,0,117.422-445.432Z" transform="translate(-116.863 445.432)" fill="#77c043"/>
        </g>
        <g id="Group_5149" data-name="Group 5149" transform="translate(21.178 3.483)">
          <path id="Path_26667" data-name="Path 26667" d="M198.945-541.784c7.564,0,8.142-4.316,12.191-8.365a8.2,8.2,0,0,0-4.227-1.023c-2.67,0-10.567,1.8-10.567,9.3a5.273,5.273,0,0,0,.222,1.713,13.454,13.454,0,0,1,6.936-5.393A20.335,20.335,0,0,0,198.945-541.784Z" transform="translate(-196.336 551.172)" fill="#77c043"/>
        </g>
        <g id="Group_5150" data-name="Group 5150" transform="translate(8.542 0)">
          <path id="Path_26668" data-name="Path 26668" d="M140.461-561.923c-5.837,0-6.284-3.331-9.409-6.456a6.331,6.331,0,0,1,3.262-.79c2.06,0,8.155,1.391,8.155,7.176a4.072,4.072,0,0,1-.172,1.322,10.383,10.383,0,0,0-5.353-4.162A15.693,15.693,0,0,1,140.461-561.923Z" transform="translate(-131.052 569.168)" fill="#23ae51"/>
        </g>
        <g id="Group_5151" data-name="Group 5151" transform="translate(0 9.155)">
          <path id="Path_26669" data-name="Path 26669" d="M87.72-513.42a20.506,20.506,0,0,0,20.506,20.506,20.506,20.506,0,0,0,20.506-20.506,20.423,20.423,0,0,0-1.822-8.448,21.205,21.205,0,0,1,2.62,10.239,21.3,21.3,0,0,1-21.3,21.3,21.3,21.3,0,0,1-21.3-21.3,21.205,21.205,0,0,1,2.62-10.239A20.422,20.422,0,0,0,87.72-513.42Z" transform="translate(-86.922 521.868)" fill="#23ae51"/>
        </g>
      </g>
    </g>
  </g>
</svg>
