<svg id="Layer_1" data-name="Layer 1" xmlns="http://www.w3.org/2000/svg" viewBox="0 0 96 96"><defs><style>.cls-1,.cls-2{fill:#23ae51;}.cls-1{opacity:0.2;}</style></defs><title>ic_EIA_studies</title><path class="cls-1" d="M20.41,41.6H29a1.88,1.88,0,1,0,0-3.75H22.48a30,30,0,0,1,2.87-3.75H47.84a3.29,3.29,0,0,1,3.29,3.28v1.13a3.29,3.29,0,0,1-3.29,3.28,7,7,0,0,0-7,7V49a3.28,3.28,0,0,1-3.28,3.28H17.69A30.63,30.63,0,0,1,20.41,41.6Z"/><path d="M46.13,20.28a34.09,34.09,0,0,0-32,29.78C12.45,49,10.7,48,8.92,47.08L2.72,44A1.88,1.88,0,0,0,1,47.31l6.2,3.12a57.63,57.63,0,0,1,19.6,16.23l3.42,4.44a2.86,2.86,0,0,1,.32,3,2.86,2.86,0,0,1-3.77,1.37A26.25,26.25,0,0,1,18.28,67l-.25-.4a1.87,1.87,0,1,0-3.18,2l.25.41a29.9,29.9,0,0,0,9.73,9.65l.16.1c.72.44,1.46.84,2.21,1.22L40.63,86.6a3,3,0,0,1,1.65,2.66A3,3,0,0,1,38.23,92l-12.36-4.9A37.89,37.89,0,0,1,6.76,70.33L3.52,64.47A1.88,1.88,0,1,0,.24,66.29l3.24,5.86a41.69,41.69,0,0,0,21,18.45l12.36,4.9A6.72,6.72,0,0,0,46,89.26a7.92,7.92,0,0,0-.05-.85c.67,0,1.35.06,2,.06s1.35,0,2-.06a7.92,7.92,0,0,0-.05.85A6.71,6.71,0,0,0,56.68,96a6.86,6.86,0,0,0,2.48-.47l12.36-4.9a42.46,42.46,0,0,0,7-3.6,1.88,1.88,0,0,0-2-3.17,36.89,36.89,0,0,1-6.41,3.28L57.77,92a3,3,0,0,1-4.05-2.75,3,3,0,0,1,1.65-2.66L68.8,79.94c.75-.38,1.49-.78,2.21-1.22l.16-.1A29.9,29.9,0,0,0,80.9,69l.25-.41a1.87,1.87,0,1,0-3.18-2l-.25.4a26.25,26.25,0,0,1-8.52,8.45,2.86,2.86,0,0,1-3.77-1.37,2.86,2.86,0,0,1,.32-3l3.42-4.44a57.63,57.63,0,0,1,19.6-16.23L95,47.31A1.88,1.88,0,0,0,93.28,44l-6.2,3.12q-2.68,1.37-5.23,3a34.13,34.13,0,0,0-32-29.78ZM66.19,64.37l-3.41,4.45a6.33,6.33,0,0,0-.69,1.1H53a5.56,5.56,0,0,1-5.55-5.55,4.24,4.24,0,0,1,4.23-4.23A5.33,5.33,0,0,0,57,54.82a7.41,7.41,0,0,1,7.41-7.41H77.58a31.25,31.25,0,0,1,.74,5.08A61.24,61.24,0,0,0,66.19,64.37ZM20.41,41.6H29a1.88,1.88,0,1,0,0-3.75H22.48a30,30,0,0,1,2.87-3.75H47.84a3.29,3.29,0,0,1,3.29,3.28v1.13a3.29,3.29,0,0,1-3.29,3.28,7,7,0,0,0-7,7V49a3.28,3.28,0,0,1-3.28,3.28H17.69A30.63,30.63,0,0,1,20.41,41.6ZM53.7,83.24A7,7,0,0,0,52,84.48h-.13a31.59,31.59,0,0,1-7.59,0l-.21,0a6.86,6.86,0,0,0-1.74-1.24L32,78.12a6.6,6.6,0,0,0,1.26-9.3l-3.41-4.45a61.24,61.24,0,0,0-7.72-8.3H37.53a7,7,0,0,0,7-7v-.21a3.29,3.29,0,0,1,3.28-3.29,7,7,0,0,0,7-7V37.38a7,7,0,0,0-7-7H29.37A30.41,30.41,0,0,1,76.45,43.66H64.37A11.17,11.17,0,0,0,53.21,54.82a1.58,1.58,0,0,1-1.57,1.57,8,8,0,0,0-8,8A9.32,9.32,0,0,0,53,73.67h8.5a6.8,6.8,0,0,0,.58,2,6.42,6.42,0,0,0,2,2.46Z"/><path class="cls-2" d="M82.2,79.41l0,0a1.87,1.87,0,0,0,1.29,3.23,1.83,1.83,0,0,0,1.29-.52l0,0a1.87,1.87,0,1,0-2.57-2.73Z"/><path class="cls-2" d="M95,63.74a1.89,1.89,0,0,0-2.55.73l-3.24,5.86A38.1,38.1,0,0,1,87,73.86a1.86,1.86,0,0,0,.45,2.61A1.86,1.86,0,0,0,90.07,76a42.21,42.21,0,0,0,2.45-3.88l3.24-5.86A1.87,1.87,0,0,0,95,63.74Z"/><path class="cls-2" d="M36.5,41.6a1.9,1.9,0,0,0,1.33-.55,1.87,1.87,0,0,0,0-2.65,1.9,1.9,0,0,0-1.33-.55,1.88,1.88,0,0,0-1.87,1.88,1.84,1.84,0,0,0,.55,1.32A1.86,1.86,0,0,0,36.5,41.6Z"/><path class="cls-1" d="M66.58,67l-3.43,4a5.74,5.74,0,0,0-.68,1H53.31c-3.07,0-5.57-2.23-5.57-5A4,4,0,0,1,52,63.19c2.94,0,5.34-2.13,5.34-4.75,0-3.64,3.33-6.61,7.43-6.61H78a23.54,23.54,0,0,1,.74,4.53A58.84,58.84,0,0,0,66.58,67Z"/><path class="cls-2" d="M49.87,20.27v-4h2A10.55,10.55,0,0,0,62.39,5.69V1.86A1.87,1.87,0,0,0,60.52,0H56.69A10.55,10.55,0,0,0,48,4.57,10.55,10.55,0,0,0,39.31,0H35.48a1.87,1.87,0,0,0-1.87,1.87V5.69A10.55,10.55,0,0,0,44.15,16.23h2v4Zm0-9.74a6.8,6.8,0,0,1,6.79-6.79h2v2a6.8,6.8,0,0,1-6.79,6.79h-2Zm-3.8,2h-2a6.8,6.8,0,0,1-6.79-6.79V3.74h2a6.8,6.8,0,0,1,6.79,6.79Z"/></svg>