<svg id="Layer_1" data-name="Layer 1" xmlns="http://www.w3.org/2000/svg" viewBox="0 0 96 96"><defs><style>.cls-1,.cls-2{fill:#23ae51;}.cls-1{opacity:0.2;}.cls-3{fill:#111;}</style></defs><title>ic_laboratory</title><path class="cls-1" d="M40.15,64.45s27,29.38,6.72,29.38h-42s-7.36-6.25,0-13.61c6-11.19,8.83-15.77,8.83-15.77S28.1,56.73,40.15,64.45Z"/><path class="cls-1" d="M87.29,92c-12.21,0-7.25,1.8-16.2,1.8S70,92,54.89,92c0-28.57,7.26-24.93,16.2-24.93S87.29,60.93,87.29,92Z"/><path class="cls-2" d="M8.39,85.21a1.79,1.79,0,0,0-.26.93,1.82,1.82,0,0,0,.54,1.3A1.85,1.85,0,0,0,10,88H23.74V84.31H13.17l.15-.27L28.5,58.25l-3.16-1.86Z"/><path class="cls-3" d="M31.94,22.08h-10a1.83,1.83,0,0,0-1.83,1.83V49.53L1.34,81.35A9.72,9.72,0,0,0,9.72,96H46.27A9.49,9.49,0,0,0,54,92.13l.14-.19.14.19A9.83,9.83,0,0,0,62.05,96H80.12A9.89,9.89,0,0,0,90,86.14V58.79l0,0,4.6-4.6a4.67,4.67,0,0,0-3.3-8H60A7.86,7.86,0,0,0,52.19,54V77.93l-.32-.5-18.1-28V35.37l.1,0a30.54,30.54,0,0,1,6.56-2.56A1.83,1.83,0,0,0,41.8,31V3.66H52.19V30.52a1.84,1.84,0,0,0,1.49,1.8A30.33,30.33,0,0,1,71.52,43l2.86-2.3A34.22,34.22,0,0,0,56,29.07l-.14,0V1.83A1.83,1.83,0,0,0,54,0H40a1.83,1.83,0,0,0-1.83,1.83V29.6l-.13,0a32.77,32.77,0,0,0-4,1.52l-.25.11V23.91A1.83,1.83,0,0,0,31.94,22.08ZM55.85,54A4.2,4.2,0,0,1,60,49.83H91.33A1,1,0,0,1,92,51.55l-5.19,5.19a1.85,1.85,0,0,0-.54,1.3v28.1a6.2,6.2,0,0,1-6.19,6.2H62.05a6.21,6.21,0,0,1-6.2-6.2ZM51.24,83.2a5.92,5.92,0,0,1-5,9.14H9.72a6.06,6.06,0,0,1-5.23-9.13l19-32.27a1.81,1.81,0,0,0,.26-.93V25.74h6.37V50a1.82,1.82,0,0,0,.29,1Z"/><path class="cls-2" d="M72.26,84.31V88h7.86A1.83,1.83,0,0,0,82,86.14V58.21H78.29v26.1Z"/><path class="cls-2" d="M85.14,28.1A6.85,6.85,0,1,0,92,35,6.86,6.86,0,0,0,85.14,28.1Zm0,10A3.19,3.19,0,1,1,88.32,35,3.19,3.19,0,0,1,85.14,38.14Z"/><path class="cls-2" d="M78.11,14.05A5.85,5.85,0,1,0,84,19.9,5.86,5.86,0,0,0,78.11,14.05Zm0,8a2.19,2.19,0,1,1,2.18-2.18A2.19,2.19,0,0,1,78.11,22.08Z"/><path class="cls-2" d="M6.85,16.06a6.85,6.85,0,1,0,6.85,6.85A6.85,6.85,0,0,0,6.85,16.06Zm0,10A3.19,3.19,0,1,1,10,22.91,3.19,3.19,0,0,1,6.85,26.1Z"/><path class="cls-2" d="M15.88,2a5.85,5.85,0,1,0,5.85,5.84A5.85,5.85,0,0,0,15.88,2Zm0,8a2.19,2.19,0,1,1,2.19-2.19A2.19,2.19,0,0,1,15.88,10Z"/><rect class="cls-3" x="60.22" y="58.21" width="5.67" height="3.66"/><rect class="cls-3" x="60.22" y="66.24" width="3.66" height="3.66"/><rect class="cls-3" x="60.22" y="74.27" width="5.67" height="3.66"/><rect class="cls-3" x="60.22" y="82.3" width="3.66" height="3.66"/><rect class="cls-3" x="4.01" y="36.13" width="3.66" height="3.66"/><rect class="cls-3" x="10.04" y="46.17" width="3.66" height="3.66"/><rect class="cls-3" x="44.16" y="54.2" width="3.66" height="3.66"/><rect class="cls-3" x="40.15" y="46.17" width="3.66" height="3.66"/><rect class="cls-3" x="38.14" y="38.14" width="3.66" height="3.66"/><rect class="cls-3" x="40.15" y="82.3" width="3.66" height="3.66"/><rect class="cls-3" x="34.12" y="74.27" width="3.66" height="3.66"/></svg>