<svg id="Layer_1" data-name="Layer 1" xmlns="http://www.w3.org/2000/svg" viewBox="0 0 96 96"><defs><style>.cls-1,.cls-3{fill:#23ae51;}.cls-1{opacity:0.2;}.cls-2{fill:#111;}</style></defs><title>ic_pollution_control_and_treatment</title><path class="cls-1" d="M94.07,92.43c-34.85,0-20.7,1.4-46.22,1.4s-3.07-1.4-46.22-1.4C1.63,78,22.32,66.24,47.85,66.24S94.07,78,94.07,92.43Z"/><path class="cls-2" d="M94.13,47.23H78V32.29A1.88,1.88,0,0,0,77.45,31l-4.74-4.72h0a13,13,0,0,0,4.07-.65A12,12,0,1,0,82.14,3.94,13.13,13.13,0,0,0,61.66,6.1,12.07,12.07,0,0,0,49.53,4.92a12.94,12.94,0,0,0-17.6-2.58A13.13,13.13,0,0,0,13.78,5.45a10.06,10.06,0,1,0-3.72,19.41A10,10,0,0,0,15.85,23a13.11,13.11,0,0,0,16.36.66,12.89,12.89,0,0,0,7.16,2.17A12.74,12.74,0,0,0,46.12,24V51.75a1.88,1.88,0,0,0,3.75,0V21.16H62.32l2,2,0,0,9.93,9.91V47.22H67.12a1.88,1.88,0,0,0-1.87,1.88V92.22h-4.5V59.6a1.88,1.88,0,0,0-1.88-1.88H23.25V40.1a1.87,1.87,0,0,0-1.87-1.87H13.5v-4.6a1.88,1.88,0,0,0-3.75,0v4.6H1.88A1.87,1.87,0,0,0,0,40.1v54A1.87,1.87,0,0,0,1.88,96H94.13A1.87,1.87,0,0,0,96,94.1v-45A1.87,1.87,0,0,0,94.13,47.23ZM48,17.41a1.88,1.88,0,0,0-1.88,1.88v.46a1.94,1.94,0,0,0-1.08.4,9.17,9.17,0,0,1-11.66-.27,1.88,1.88,0,0,0-2.52.06,9.37,9.37,0,0,1-13.5-.68,1.86,1.86,0,0,0-2.76-.07,6.31,6.31,0,1,1-1.14-9.71A1.86,1.86,0,0,0,15,9.71a1.83,1.83,0,0,0,1.18-.94A9.37,9.37,0,0,1,30.69,6.13a1.87,1.87,0,0,0,2.51,0A9.19,9.19,0,0,1,47.33,8.33a1.87,1.87,0,0,0,1.2.89A1.84,1.84,0,0,0,50,9a8.31,8.31,0,0,1,10.83,1.42,1.89,1.89,0,0,0,1.75.6A1.86,1.86,0,0,0,64,9.79,9.38,9.38,0,0,1,80,7.18a1.88,1.88,0,0,0,1.9.63,8.18,8.18,0,0,1,2-.25,8.31,8.31,0,1,1-5.53,14.5,1.87,1.87,0,0,0-2-.32,9.36,9.36,0,0,1-9.54-1.32L64.42,18a1.88,1.88,0,0,0-1.33-.55ZM3.75,87h7.06a1.88,1.88,0,1,0,0-3.75H3.75V78h7.06a1.88,1.88,0,1,0,0-3.75H3.75V69h7.06a1.88,1.88,0,1,0,0-3.75H3.75V60h7.06a1.88,1.88,0,1,0,0-3.75H3.75V51h7.06a1.88,1.88,0,1,0,0-3.75H3.75V42H19.5V92.23H3.75Zm19.5-25.5H57V92.23H23.25Zm69,30.75H69V87h7.47a1.88,1.88,0,0,0,0-3.75H69V78h7.47a1.88,1.88,0,0,0,0-3.75H69V69h7.47a1.88,1.88,0,0,0,0-3.75H69V60h7.47a1.88,1.88,0,0,0,0-3.75H69V51H92.25Z"/><path class="cls-3" d="M57.75,37.91A1.87,1.87,0,0,0,59.62,36V32.29a1.87,1.87,0,1,0-3.74,0V36A1.87,1.87,0,0,0,57.75,37.91Z"/><path class="cls-3" d="M30.75,66.54a1.87,1.87,0,0,0-1.87,1.87v3.75a1.88,1.88,0,1,0,3.75,0V68.41A1.88,1.88,0,0,0,30.75,66.54Z"/><path class="cls-3" d="M40.12,66.54a1.87,1.87,0,0,0-1.87,1.87v3.75a1.88,1.88,0,1,0,3.75,0V68.41A1.88,1.88,0,0,0,40.12,66.54Z"/><path class="cls-3" d="M49.5,66.54a1.88,1.88,0,0,0-1.88,1.87v3.75a1.88,1.88,0,0,0,3.76,0V68.41A1.88,1.88,0,0,0,49.5,66.54Z"/><path class="cls-3" d="M30.75,78.35a1.88,1.88,0,0,0-1.87,1.88V84a1.88,1.88,0,0,0,3.75,0V80.23A1.88,1.88,0,0,0,30.75,78.35Z"/><path class="cls-3" d="M40.12,78.35a1.88,1.88,0,0,0-1.87,1.88V84A1.88,1.88,0,0,0,42,84V80.23A1.88,1.88,0,0,0,40.12,78.35Z"/><path class="cls-3" d="M49.5,78.35a1.88,1.88,0,0,0-1.88,1.88V84a1.88,1.88,0,0,0,3.76,0V80.23A1.88,1.88,0,0,0,49.5,78.35Z"/><path class="cls-3" d="M55.88,49.87a1.87,1.87,0,1,0,3.74,0V46.12a1.87,1.87,0,0,0-3.74,0Z"/><path class="cls-3" d="M67.12,41.66A1.88,1.88,0,0,0,69,39.79V36a1.88,1.88,0,1,0-3.75,0v3.75A1.87,1.87,0,0,0,67.12,41.66Z"/></svg>