<svg id="Layer_1" data-name="Layer 1" xmlns="http://www.w3.org/2000/svg" viewBox="0 0 96 96"><defs><style>.cls-1,.cls-3{fill:#23ae51;}.cls-1{opacity:0.2;}.cls-2{fill:#111;}</style></defs><title>ic_statutory_approvals</title><path class="cls-1" d="M85.87,92.88H52.32V65.59c0-4.42,7.51-8,16.78-8h0c9.26,0,16.77,3.58,16.77,8V92.88Z"/><path class="cls-1" d="M43.15,92.42H10.49V70.09c0-3.61,7.31-6.54,16.33-6.54h0c9,0,16.33,2.93,16.33,6.54V92.42Z"/><path class="cls-2" d="M44.47,24.89H8.82a1.91,1.91,0,0,0-1.9,1.9V92.2h-5a1.9,1.9,0,1,0,0,3.8H94.1a1.9,1.9,0,1,0,0-3.8H89V1.9A1.9,1.9,0,0,0,87.1,0H51.45a1.9,1.9,0,0,0-1.9,1.9V92.2H46.37V26.79A1.91,1.91,0,0,0,44.47,24.89ZM42.57,92.2H10.72V28.69H42.57ZM53.35,3.8H85.2V92.2H53.35Z"/><path class="cls-3" d="M73.36,84H78.7a2,2,0,0,0,0-4H73.36a2,2,0,0,0,0,4Z"/><path class="cls-3" d="M59.5,84h5.33a2,2,0,0,0,0-4H59.5a2,2,0,1,0,0,4Z"/><path class="cls-3" d="M73.36,72.71H78.7a2,2,0,0,0,0-4H73.36a2,2,0,0,0,0,4Z"/><path class="cls-3" d="M59.5,72.71h5.33a2,2,0,0,0,0-4H59.5a2,2,0,1,0,0,4Z"/><path class="cls-3" d="M73.36,61.43H78.7a2,2,0,0,0,0-4H73.36a2,2,0,0,0,0,4Z"/><path class="cls-3" d="M59.5,61.43h5.33a2,2,0,0,0,0-4H59.5a2,2,0,1,0,0,4Z"/><path class="cls-3" d="M73.36,50.15H78.7a2,2,0,0,0,0-4H73.36a2,2,0,0,0,0,4Z"/><path class="cls-3" d="M59.5,50.15h5.33a2,2,0,0,0,0-4H59.5a2,2,0,1,0,0,4Z"/><path class="cls-3" d="M73.36,38.88H78.7a2,2,0,0,0,0-4H73.36a2,2,0,0,0,0,4Z"/><path class="cls-3" d="M59.5,38.88h5.33a2,2,0,0,0,0-4H59.5a2,2,0,1,0,0,4Z"/><path class="cls-3" d="M73.36,27.6H78.7a2,2,0,0,0,0-4H73.36a2,2,0,0,0,0,4Z"/><path class="cls-3" d="M59.5,27.6h5.33a2,2,0,0,0,0-4H59.5a2,2,0,1,0,0,4Z"/><path class="cls-3" d="M73.36,16.32H78.7a2,2,0,0,0,0-4H73.36a2,2,0,0,0,0,4Z"/><path class="cls-3" d="M59.5,16.32h5.33a2,2,0,0,0,0-4H59.5a2,2,0,1,0,0,4Z"/><path class="cls-2" d="M31.24,51.58h5.33a2,2,0,1,0,0-4H31.24a2,2,0,1,0,0,4Z"/><path class="cls-2" d="M22.7,47.61H17.37a2,2,0,0,0,0,4H22.7a2,2,0,1,0,0-4Z"/><path class="cls-2" d="M31.24,40.31h5.33a2,2,0,1,0,0-4H31.24a2,2,0,1,0,0,4Z"/><path class="cls-2" d="M22.7,36.34H17.37a2,2,0,0,0,0,4H22.7a2,2,0,1,0,0-4Z"/></svg>