<svg id="Layer_1" data-name="Layer 1" xmlns="http://www.w3.org/2000/svg" viewBox="0 0 96 96"><defs><style>.cls-1,.cls-3{fill:#23ae51;}.cls-1{opacity:0.2;}.cls-2{fill:#111;}</style></defs><title>ic_scrubber_designing_and_solution</title><path class="cls-1" d="M47.25,85.5H28.5V65.81a9.37,9.37,0,0,1,9.37-9.37h0a9.37,9.37,0,0,1,9.37,9.37Z"/><path class="cls-1" d="M69.75,85.5H51V65.81a9.37,9.37,0,0,1,9.37-9.37h0a9.37,9.37,0,0,1,9.37,9.37Z"/><path class="cls-1" d="M92.25,85.5H73.5V65.81a9.37,9.37,0,0,1,9.37-9.37h0a9.37,9.37,0,0,1,9.37,9.37Z"/><path class="cls-2" d="M84.75,29.39V19.88a7.51,7.51,0,0,0-7.5-7.51H43.5A7.51,7.51,0,0,0,36,19.88v9.51a13.11,13.11,0,0,0-7.5,3.81V8.62a1.87,1.87,0,0,0-1.87-1.87H1.87A1.87,1.87,0,0,0,0,8.62V87.37a1.88,1.88,0,0,0,1.87,1.88H94.12A1.88,1.88,0,0,0,96,87.37V73.31H92.25V85.5h-7.5V81.75a13.14,13.14,0,0,0-11.25-13V44.25H92.25V73.31H96V42.37A13.13,13.13,0,0,0,84.75,29.39ZM12.38,85.5H3.75V72.38h8.63Zm12.37,0H16.13v-15a1.88,1.88,0,0,0-1.88-1.88H3.75V10.5h21ZM37.87,33a9.4,9.4,0,0,1,9.19,7.5H28.69A9.4,9.4,0,0,1,37.88,33Zm9.38,52.5H28.5V72.38H47.25Zm0-16.88H28.5V44.25H47.25Zm1.87-33a13.14,13.14,0,0,0-9.37-6.23V19.88a3.75,3.75,0,0,1,3.75-3.75h15V29.39A13.17,13.17,0,0,0,49.12,35.62ZM60.37,33a9.4,9.4,0,0,1,9.19,7.5H51.19A9.39,9.39,0,0,1,60.37,33Zm9.38,52.5H51V72.38H69.75Zm0-16.88H51V44.25H69.75ZM81,81.75V85.5H73.5V72.56A9.4,9.4,0,0,1,81,81.75ZM71.62,35.62a13.14,13.14,0,0,0-9.37-6.23V16.13h15A3.75,3.75,0,0,1,81,19.88v9.51A13.17,13.17,0,0,0,71.62,35.62Zm2.07,4.88a9.37,9.37,0,0,1,18.37,0Z"/><path class="cls-3" d="M24.75,57.37H14.25a1.88,1.88,0,0,0,0,3.75h10.5Zm0-11.25H14.25a1.88,1.88,0,0,0,0,3.75h10.5Zm0-11.25H14.25a1.88,1.88,0,0,0,0,3.75h10.5Zm0-11.25H14.25a1.88,1.88,0,0,0,0,3.75h10.5Z"/></svg>