<svg id="Layer_1" data-name="Layer 1" xmlns="http://www.w3.org/2000/svg" viewBox="0 0 96 96"><defs><style>.cls-1{opacity:0.2;}.cls-2{fill:#23ae51;}.cls-3{fill:#111;}</style></defs><title>ic_waste_management</title><g class="cls-1"><path class="cls-2" d="M57.85,73.09c1.9-1.45,6-4.27,10.21-5-2.39-7.85-4-13.36-4.5-23.8-.42-8.16-9.15-14.63-19.8-14.63h0c-10.67,0-19.38,6.5-19.8,14.68C23,62,19.16,76.88,13.36,85.86H55.12C53.33,82.32,54.13,76,57.85,73.09Z"/></g><path class="cls-3" d="M84,64.34a1.94,1.94,0,0,0-1.48-.56,111.26,111.26,0,0,0-13,1.79c-3.24-14.83-4.7-33.52-4.12-52.9a1.91,1.91,0,0,0-1.91-2H24a1.91,1.91,0,0,0-1.37.58,1.85,1.85,0,0,0-.54,1.39C23,42.89,19.12,69.93,11.65,85a1.9,1.9,0,0,0,1.71,2.76H53.87a13.82,13.82,0,0,0,1.54,2.45l-2.5,2.5a1.91,1.91,0,1,0,2.7,2.71l2.5-2.5A14.81,14.81,0,0,0,77.6,91.67c5.38-5.39,6.8-23.77,7-25.85A1.91,1.91,0,0,0,84,64.34ZM26,14.52H61.52c-.44,19,1.06,37.29,4.27,51.92-4.43,1.18-7.42,2.59-9.12,4.3a14.8,14.8,0,0,0-4.08,13.2H16.35C23.1,68.31,26.66,42.81,26,14.52ZM74.89,89a11,11,0,0,1-14,1.23l5.07-5.06a1.91,1.91,0,1,0-2.71-2.7l-5.06,5.06a11,11,0,0,1,1.23-14c1-1,3.32-2.38,9.13-3.73a100.64,100.64,0,0,1,12-1.91C79.92,74.11,78.16,85.69,74.89,89Z"/><path class="cls-2" d="M32.78,6.18a1.92,1.92,0,0,0,3.83,0,7,7,0,0,0-.91-3,5.63,5.63,0,0,1-.53-1.3,1.91,1.91,0,0,0-3.82,0,6.85,6.85,0,0,0,.91,3A6.21,6.21,0,0,1,32.78,6.18Z"/><path class="cls-2" d="M50.69,6.18a1.91,1.91,0,1,0,3.82,0,6.85,6.85,0,0,0-.91-3,6.12,6.12,0,0,1-.53-1.3,1.91,1.91,0,0,0-3.82,0,6.85,6.85,0,0,0,.91,3A6.34,6.34,0,0,1,50.69,6.18Z"/><path class="cls-2" d="M58.15,60a1.74,1.74,0,0,0,1.51-.88,1.72,1.72,0,0,0-.06-1.75L53,46.87l1.22.27a1.72,1.72,0,0,0,.74-3.36l-5.26-1.16a1.72,1.72,0,0,0-2.05,1.31l-1.17,5.26a1.72,1.72,0,0,0,1.31,2.05,1.61,1.61,0,0,0,.37,0,1.72,1.72,0,0,0,1.68-1.34l.27-1.21,5,7.86h-3.4a1.72,1.72,0,0,0,0,3.43Z"/><path class="cls-2" d="M45,40.72l.45.75a1.72,1.72,0,0,0,1.47.83,1.8,1.8,0,0,0,.89-.24,1.73,1.73,0,0,0,.59-2.36L47.94,39A1.72,1.72,0,0,0,45,40.72Z"/><path class="cls-2" d="M44,53.24a1.72,1.72,0,0,0-2.43,2.43l.91.92h-9.9l1.35-2.14a1.73,1.73,0,0,0-.54-2.37,1.71,1.71,0,0,0-2.37.54l-3,4.77a1.69,1.69,0,0,0,0,1.75,1.72,1.72,0,0,0,1.5.88H42.37l-.84.85a1.72,1.72,0,0,0,1.21,2.93A1.75,1.75,0,0,0,44,63.3l3.81-3.81a1.73,1.73,0,0,0,0-2.44Z"/><path class="cls-2" d="M33.42,49.63a1.77,1.77,0,0,0,.75,1.08,1.8,1.8,0,0,0,.93.27,2.33,2.33,0,0,0,.37,0l5.26-1.17A1.72,1.72,0,1,0,40,46.42l-1.2.26,6.45-10.23a1.72,1.72,0,1,0-2.91-1.84L35.88,44.84l-.26-1.22a1.72,1.72,0,0,0-3.36.74Z"/><path class="cls-3" d="M67.8,80.51a1.91,1.91,0,0,0,2.7,0l1.16-1.16A1.91,1.91,0,1,0,69,76.65L67.8,77.8A1.91,1.91,0,0,0,67.8,80.51Z"/></svg>