<svg id="location" xmlns="http://www.w3.org/2000/svg" width="66" height="66" viewBox="0 0 66 66">
  <path id="Path_6769" data-name="Path 6769" d="M33,66A33,33,0,1,1,66,33a1.435,1.435,0,0,1-2.87,0A30.13,30.13,0,1,0,33,63.13c10,0,19.717-5.088,23.1-12.1a3.156,3.156,0,0,0,.192-3.171c-1.613-1.48-13.7-6.982-15.851-6.556a1.438,1.438,0,1,1-.187-2.87c3.166-.572,16.273,5.419,18.419,7.815a5.739,5.739,0,0,1,0,6.026C54.849,60.229,44.048,66,33,66Z" fill="#111"/>
  <path id="Path_6774" data-name="Path 6774" d="M30.658,4.268h0a14.571,14.571,0,0,0-20.6,0h0C4.928,9.394,4.351,19.047,8.7,24.848L20.356,41.681,32.011,24.848C36.362,19.047,35.786,9.394,30.658,4.268ZM20.5,19.237a4.809,4.809,0,1,1,4.809-4.809A4.809,4.809,0,0,1,20.5,19.237Z" transform="translate(13.359 11.251)" fill="#23ae51"/>
</svg>
