<svg id="phone" xmlns="http://www.w3.org/2000/svg" width="66" height="66" viewBox="0 0 66 66">
  <path id="Path_6769" data-name="Path 6769" d="M33,66A33,33,0,1,1,66,33a1.435,1.435,0,0,1-2.87,0A30.13,30.13,0,1,0,33,63.13c10,0,19.717-5.088,23.1-12.1a3.156,3.156,0,0,0,.192-3.171,6.867,6.867,0,0,0-5.98-1.676,1.438,1.438,0,0,1-.187-2.87,9.266,9.266,0,0,1,8.548,2.936,5.739,5.739,0,0,1,0,6.026C54.849,60.229,44.048,66,33,66Z" fill="#111"/>
  <path id="Path_6770" data-name="Path 6770" d="M140.122,130.246a19.988,19.988,0,0,1-6.271-1,3.177,3.177,0,0,0-3.234.662l-3.828,2.889a21.832,21.832,0,0,1-9.508-9.5l2.762-3.675a3.316,3.316,0,0,0,.817-3.367,20,20,0,0,1-1-6.285,3.3,3.3,0,0,0-3.294-3.3h-6.6a3.3,3.3,0,0,0-3.3,3.3,33.493,33.493,0,0,0,33.454,33.454,3.3,3.3,0,0,0,3.3-3.3v-6.576A3.3,3.3,0,0,0,140.122,130.246Z" transform="translate(-92.044 -92.044)" fill="#23ae51"/>
</svg>
